<svg width="375" height="123" viewBox="0 0 375 123" fill="none" xmlns="http://www.w3.org/2000/svg">
<path d="M203.73 27.9638H207.095C207.124 29.2082 208.052 29.9896 209.676 29.9896C211.329 29.9896 212.228 29.324 212.228 28.2821C212.228 27.5586 211.851 27.0377 210.575 26.7483L207.994 26.1406C205.413 25.5618 204.165 24.3463 204.165 22.0601C204.165 19.2529 206.544 17.5745 209.85 17.5745C213.069 17.5745 215.244 19.4266 215.273 22.2048H211.909C211.88 20.9893 211.068 20.208 209.705 20.208C208.313 20.208 207.501 20.8446 207.501 21.9154C207.501 22.7257 208.139 23.2466 209.357 23.536L211.938 24.1438C214.345 24.6936 215.563 25.7933 215.563 27.9927C215.563 30.8867 213.098 32.681 209.56 32.681C205.993 32.681 203.73 30.7709 203.73 27.9638Z" fill="#A6A646"/>
<path d="M231.829 32.3047H228.291V20.9604H225.536V18.0085H228.291V13.5518H231.829V18.0085H234.613V20.9604H231.829V32.3047Z" fill="#A6A646"/>
<path d="M254.503 17.9507V21.2208H253.198C250.646 21.2208 249.051 22.581 249.051 25.3592V32.3047H245.513V18.0375H248.848L249.051 20.1211C249.66 18.7031 251.023 17.7481 252.937 17.7481C253.43 17.7481 253.923 17.806 254.503 17.9507Z" fill="#A6A646"/>
<path d="M269.295 32.681C266.25 32.681 264.394 30.9156 264.394 28.2242C264.394 25.5907 266.308 23.9412 269.701 23.6807L273.993 23.3624V23.044C273.993 21.1051 272.833 20.3237 271.035 20.3237C268.947 20.3237 267.787 21.1919 267.787 22.6968H264.771C264.771 19.6002 267.323 17.5745 271.209 17.5745C275.066 17.5745 277.444 19.6581 277.444 23.6228V32.3047H274.341L274.08 30.1921C273.471 31.6681 271.528 32.681 269.295 32.681ZM270.455 30.0185C272.63 30.0185 274.022 28.7162 274.022 26.5168V25.7644L271.035 25.9959C268.831 26.1985 267.99 26.922 267.99 28.0795C267.99 29.3818 268.86 30.0185 270.455 30.0185Z" fill="#A6A646"/>
<path d="M291.389 15.1435C290.171 15.1435 289.214 14.1885 289.214 13.002C289.214 11.8155 290.171 10.8894 291.389 10.8894C292.549 10.8894 293.506 11.8155 293.506 13.002C293.506 14.1885 292.549 15.1435 291.389 15.1435ZM289.62 32.3047V18.0085H293.158V32.3047H289.62Z" fill="#A6A646"/>
<path d="M304.702 24.8383C304.702 20.671 307.428 17.5455 311.517 17.5455C313.663 17.5455 315.345 18.4426 316.186 19.9764L316.389 18.0085H319.666V31.5812C319.666 36.3563 316.795 39.3371 312.155 39.3371C308.037 39.3371 305.224 36.993 304.789 33.1729H308.327C308.559 35.0251 309.98 36.1248 312.155 36.1248C314.591 36.1248 316.157 34.591 316.157 32.2179V29.8449C315.258 31.1761 313.489 32.0153 311.43 32.0153C307.37 32.0153 304.702 28.9767 304.702 24.8383ZM308.269 24.7515C308.269 27.1535 309.806 28.9477 312.126 28.9477C314.562 28.9477 316.07 27.2403 316.07 24.7515C316.07 22.3206 314.591 20.6421 312.126 20.6421C309.777 20.6421 308.269 22.4074 308.269 24.7515Z" fill="#A6A646"/>
<path d="M335.566 32.3047H332.028V10.7736H335.595V19.8607C336.494 18.4716 338.176 17.5745 340.235 17.5745C343.773 17.5745 345.629 19.8028 345.629 23.5071V32.3047H342.091V24.3463C342.091 21.9443 340.902 20.7868 339.104 20.7868C336.871 20.7868 335.566 22.3495 335.566 24.491V32.3047Z" fill="#A6A646"/>
<path d="M362.678 32.3047H359.14V20.9604H356.385V18.0085H359.14V13.5518H362.678V18.0085H365.462V20.9604H362.678V32.3047Z" fill="#A6A646"/>
<path d="M203.411 57.0434H205.471V55.3071C205.471 51.4291 207.53 49.8085 210.633 49.8085C211.184 49.8085 211.851 49.8375 212.46 49.9532V52.9629H211.213C209.415 52.9629 208.98 53.889 208.98 55.3071V57.0434H212.402V59.9953H208.98V71.3396H205.471V59.9953H203.411V57.0434Z" fill="#A6A646"/>
<path d="M222.094 64.1626C222.094 59.7059 225.313 56.6383 229.751 56.6383C234.188 56.6383 237.407 59.7059 237.407 64.1626C237.407 68.6193 234.188 71.6869 229.751 71.6869C225.313 71.6869 222.094 68.6193 222.094 64.1626ZM225.632 64.1626C225.632 66.7672 227.314 68.5325 229.751 68.5325C232.187 68.5325 233.869 66.7672 233.869 64.1626C233.869 61.558 232.187 59.7927 229.751 59.7927C227.314 59.7927 225.632 61.558 225.632 64.1626Z" fill="#A6A646"/>
<path d="M257.902 56.9856V60.2557H256.597C254.045 60.2557 252.45 61.6159 252.45 64.3941V71.3396H248.911V57.0724H252.247L252.45 59.156C253.059 57.738 254.422 56.783 256.336 56.783C256.829 56.783 257.322 56.8409 257.902 56.9856Z" fill="#A6A646"/>
<path d="M272.583 71.3396L267.943 57.0434H271.626L273.511 63.1786C273.83 64.3073 274.12 65.5517 274.381 66.8829C274.642 65.4938 274.903 64.5967 275.367 63.1786L277.339 57.0434H280.935L282.849 63.1786C283.023 63.7574 283.603 65.899 283.777 66.854C284.009 65.7832 284.473 64.0758 284.734 63.1786L286.648 57.0434H290.389L285.43 71.3396H282.124L280.152 65.1465C279.572 63.2655 279.253 61.9053 279.137 61.1818C278.992 61.8474 278.731 62.8603 278.006 65.2044L276.034 71.3396H272.583Z" fill="#A6A646"/>
<path d="M304.787 71.7158C301.742 71.7158 299.886 69.9505 299.886 67.2591C299.886 64.6256 301.8 62.9761 305.193 62.7156L309.485 62.3973V62.0789C309.485 60.14 308.325 59.3586 306.527 59.3586C304.439 59.3586 303.279 60.2268 303.279 61.7317H300.263C300.263 58.6351 302.815 56.6093 306.701 56.6093C310.558 56.6093 312.936 58.693 312.936 62.6577V71.3396H309.833L309.572 69.227C308.963 70.703 307.02 71.7158 304.787 71.7158ZM305.947 69.0534C308.122 69.0534 309.514 67.7511 309.514 65.5517V64.7993L306.527 65.0308C304.323 65.2334 303.482 65.9569 303.482 67.1144C303.482 68.4167 304.352 69.0534 305.947 69.0534Z" fill="#A6A646"/>
<path d="M334.102 56.9856V60.2557H332.797C330.245 60.2557 328.65 61.6159 328.65 64.3941V71.3396H325.112V57.0724H328.447L328.65 59.156C329.259 57.738 330.622 56.783 332.536 56.783C333.029 56.783 333.522 56.8409 334.102 56.9856Z" fill="#A6A646"/>
<path d="M350.603 71.7158C346.456 71.7158 343.875 68.6772 343.875 64.2494C343.875 59.7927 346.485 56.6093 350.806 56.6093C352.807 56.6093 354.576 57.4486 355.475 58.8666V49.8085H358.984V71.3396H355.736L355.504 69.1113C354.634 70.7608 352.778 71.7158 350.603 71.7158ZM351.386 68.4746C353.851 68.4746 355.446 66.7093 355.446 64.1337C355.446 61.558 353.851 59.7638 351.386 59.7638C348.921 59.7638 347.413 61.587 347.413 64.1337C347.413 66.6803 348.921 68.4746 351.386 68.4746Z" fill="#A6A646"/>
<path d="M206.602 93.2133C205.413 93.2133 204.455 92.2583 204.455 91.0718C204.455 89.8852 205.413 88.9592 206.602 88.9592C207.762 88.9592 208.748 89.8852 208.748 91.0718C208.748 92.2583 207.762 93.2133 206.602 93.2133ZM201.41 117.089L201.99 113.963C202.483 114.108 202.773 114.137 203.208 114.137C204.426 114.137 204.833 113.442 204.833 111.995V96.0783H208.371V112.4C208.371 115.439 206.631 117.407 203.527 117.407C202.86 117.407 202.338 117.349 201.41 117.089Z" fill="#A6A646"/>
<path d="M219.885 103.197C219.885 98.7408 223.104 95.6732 227.541 95.6732C231.979 95.6732 235.198 98.7408 235.198 103.197C235.198 107.654 231.979 110.722 227.541 110.722C223.104 110.722 219.885 107.654 219.885 103.197ZM223.423 103.197C223.423 105.802 225.105 107.567 227.541 107.567C229.978 107.567 231.66 105.802 231.66 103.197C231.66 100.593 229.978 98.8276 227.541 98.8276C225.105 98.8276 223.423 100.593 223.423 103.197Z" fill="#A6A646"/>
<path d="M249.979 110.375H246.702V88.8434H250.24V98.162C251.168 96.5703 253.083 95.6153 255.258 95.6153C259.347 95.6153 261.841 98.7987 261.841 103.313C261.841 107.712 259.144 110.751 255.026 110.751C252.88 110.751 251.052 109.796 250.211 108.146L249.979 110.375ZM250.269 103.169C250.269 105.744 251.865 107.509 254.301 107.509C256.795 107.509 258.274 105.715 258.274 103.169C258.274 100.622 256.795 98.7987 254.301 98.7987C251.865 98.7987 250.269 100.593 250.269 103.169Z" fill="#A6A646"/>
<path d="M288.773 106.034H292.137C292.166 107.278 293.094 108.059 294.718 108.059C296.371 108.059 297.27 107.394 297.27 106.352C297.27 105.628 296.893 105.108 295.617 104.818L293.036 104.21C290.455 103.632 289.208 102.416 289.208 100.13C289.208 97.3227 291.586 95.6442 294.892 95.6442C298.111 95.6442 300.286 97.4964 300.315 100.275H296.951C296.922 99.0591 296.11 98.2777 294.747 98.2777C293.355 98.2777 292.543 98.9144 292.543 99.9852C292.543 100.796 293.181 101.316 294.399 101.606L296.98 102.214C299.387 102.763 300.605 103.863 300.605 106.063C300.605 108.956 298.14 110.751 294.602 110.751C291.035 110.751 288.773 108.841 288.773 106.034Z" fill="#A6A646"/>
<path d="M313.768 93.2133C312.55 93.2133 311.593 92.2583 311.593 91.0718C311.593 89.8852 312.55 88.9592 313.768 88.9592C314.928 88.9592 315.886 89.8852 315.886 91.0718C315.886 92.2583 314.928 93.2133 313.768 93.2133ZM311.999 110.375V96.0783H315.538V110.375H311.999Z" fill="#A6A646"/>
<path d="M332.765 110.375H329.227V99.0302H326.472V96.0783H329.227V91.6216H332.765V96.0783H335.549V99.0302H332.765V110.375Z" fill="#A6A646"/>
<path d="M352.717 110.751C348.454 110.751 345.467 107.654 345.467 103.226C345.467 98.7408 348.396 95.6442 352.601 95.6442C356.893 95.6442 359.619 98.5093 359.619 102.966V104.037L348.831 104.066C349.092 106.583 350.426 107.857 352.775 107.857C354.718 107.857 355.994 107.104 356.4 105.744H359.677C359.068 108.87 356.458 110.751 352.717 110.751ZM352.63 98.5382C350.542 98.5382 349.266 99.6668 348.918 101.808H356.11C356.11 99.8405 354.747 98.5382 352.63 98.5382Z" fill="#A6A646"/>
<path d="M372.651 110.722C371.375 110.722 370.302 109.68 370.302 108.436C370.302 107.162 371.375 106.12 372.651 106.12C373.927 106.12 375 107.162 375 108.436C375 109.68 373.927 110.722 372.651 110.722Z" fill="#A6A646"/>
<path d="M159.352 2.83021C168.491 2.83021 176.009 10.2236 176.009 19.3437C176.009 28.4639 168.491 35.8572 159.352 35.8572C150.212 35.8572 142.694 28.4639 142.694 19.3437C142.694 10.2236 150.212 2.83021 159.352 2.83021Z" fill="#FDA26B"/>
<path d="M159.55 46.4794C168.64 46.4794 176.009 53.8328 176.009 62.9037C176.009 71.9745 168.64 79.3279 159.55 79.3279H159.153C150.063 79.3279 142.694 71.9745 142.694 62.9037C142.694 53.8328 150.063 46.4794 159.153 46.4794H159.55Z" fill="#E673A9"/>
<path d="M159.352 89.8608C168.491 89.8608 176.009 97.2542 176.009 106.374C176.009 115.495 168.491 122.888 159.352 122.888C150.212 122.888 142.694 115.495 142.694 106.374C142.694 97.2542 150.212 89.8608 159.352 89.8608Z" fill="#F8DAD0"/>
<path d="M66.5867 4.11521C75.6767 4.11521 83.0456 11.4686 83.0456 20.5395C83.0456 29.6103 75.6767 36.9637 66.5867 36.9637L66.1892 36.9637C57.0992 36.9637 49.7303 29.6103 49.7303 20.5394C49.7303 11.4686 57.0992 4.11521 66.1892 4.11521H66.5867Z" fill="#D5CB2C"/>
<path d="M112.773 2.83021C121.912 2.83021 129.43 10.2236 129.43 19.3437C129.43 28.4639 121.912 35.8572 112.773 35.8572C103.633 35.8572 96.1151 28.4639 96.1151 19.3437C96.1151 10.2236 103.633 2.83021 112.773 2.83021Z" fill="#F38143"/>
<path d="M112.971 46.4794C122.061 46.4794 129.43 53.8328 129.43 62.9037C129.43 71.9745 122.061 79.3279 112.971 79.3279H112.574C103.484 79.3279 96.1151 71.9745 96.1151 62.9037C96.1151 53.8328 103.484 46.4794 112.574 46.4794H112.971Z" fill="#308B7B"/>
<path d="M112.773 89.8608C121.912 89.8608 129.43 97.2542 129.43 106.374C129.43 115.495 121.912 122.888 112.773 122.888C103.633 122.888 96.1151 115.495 96.1151 106.374C96.1151 97.2542 103.633 89.8608 112.773 89.8608Z" fill="#FFABDA"/>
<path d="M19.809 47.4966C28.9484 47.4966 36.4666 54.89 36.4666 64.0101C36.4666 73.1303 28.9484 80.5236 19.809 80.5236C10.6695 80.5236 3.15132 73.1303 3.15132 64.0101C3.15132 54.89 10.6695 47.4966 19.809 47.4966Z" fill="#D6A6DC"/>
<path d="M66.388 47.4966C75.5274 47.4966 83.0456 54.89 83.0456 64.0101C83.0456 73.1303 75.5274 80.5236 66.388 80.5236C57.2485 80.5236 49.7303 73.1303 49.7303 64.0101C49.7303 54.89 57.2485 47.4966 66.388 47.4966Z" fill="#50B09F"/>
<path d="M19.809 89.973C28.9484 89.973 36.4666 97.3663 36.4666 106.486C36.4666 115.607 28.9484 123 19.809 123C10.6695 123 3.15132 115.607 3.15132 106.486C3.15132 97.3663 10.6695 89.973 19.809 89.973Z" fill="#C1D8D3"/>
<path d="M66.388 89.973C75.5274 89.973 83.0456 97.3663 83.0456 106.486C83.0456 115.607 75.5274 123 66.388 123C57.2485 123 49.7303 115.607 49.7303 106.486C49.7303 97.3663 57.2485 89.973 66.388 89.973Z" fill="#A6A646"/>
<path d="M20.1638 4.11521C29.2538 4.11521 36.6227 11.4686 36.6227 20.5395C36.6227 29.6103 29.2538 36.9637 20.1638 36.9637L19.6883 36.9637C10.5983 36.9637 3.2294 29.6103 3.2294 20.5394C3.2294 11.4686 10.5983 4.11521 19.6883 4.11521H20.1638Z" fill="#FFA08B"/>
<path d="M156.2 0C165.34 3.98655e-07 172.858 7.39335 172.858 16.5135C172.858 25.6337 165.34 33.027 156.2 33.027C147.061 33.027 139.543 25.6337 139.543 16.5135C139.543 7.39335 147.061 -3.98655e-07 156.2 0Z" fill="#A6A646"/>
<path d="M156.399 43.6492C165.489 43.6492 172.858 51.0026 172.858 60.0735C172.858 69.1443 165.489 76.4977 156.399 76.4977H156.002C146.912 76.4977 139.543 69.1443 139.543 60.0735C139.543 51.0026 146.912 43.6492 156.002 43.6492H156.399Z" fill="#FDA26B"/>
<path d="M156.2 87.0306C165.34 87.0306 172.858 94.424 172.858 103.544C172.858 112.664 165.34 120.058 156.2 120.058C147.061 120.058 139.543 112.664 139.543 103.544C139.543 94.424 147.061 87.0306 156.2 87.0306Z" fill="#D6A6DC"/>
<path d="M63.4354 1.285C72.5254 1.285 79.8943 8.63838 79.8943 17.7092C79.8943 26.7801 72.5254 34.1335 63.4354 34.1335H63.0379C53.9479 34.1335 46.579 26.7801 46.579 17.7092C46.579 8.63838 53.9479 1.285 63.0379 1.285H63.4354Z" fill="#308B7B"/>
<path d="M109.621 0C118.761 3.98655e-07 126.279 7.39335 126.279 16.5135C126.279 25.6337 118.761 33.027 109.621 33.027C100.482 33.027 92.9638 25.6337 92.9638 16.5135C92.9638 7.39335 100.482 -3.98655e-07 109.621 0Z" fill="#FFABDA"/>
<path d="M109.82 43.6492C118.91 43.6492 126.279 51.0026 126.279 60.0735C126.279 69.1443 118.91 76.4977 109.82 76.4977H109.423C100.333 76.4977 92.9638 69.1443 92.9638 60.0734C92.9638 51.0026 100.333 43.6492 109.423 43.6492H109.82Z" fill="#BCD1D4"/>
<path d="M109.621 87.0306C118.761 87.0306 126.279 94.424 126.279 103.544C126.279 112.664 118.761 120.058 109.621 120.058C100.482 120.058 92.9638 112.664 92.9638 103.544C92.9638 94.424 100.482 87.0306 109.621 87.0306Z" fill="#F38143"/>
<path d="M16.6576 44.6664C25.7971 44.6664 33.3153 52.0598 33.3153 61.1799C33.3153 70.3001 25.7971 77.6934 16.6576 77.6934C7.51822 77.6934 -3.99497e-07 70.3001 0 61.1799C3.99497e-07 52.0598 7.51823 44.6664 16.6576 44.6664Z" fill="#D5CB2C"/>
<path d="M63.2366 44.6664C72.3761 44.6664 79.8943 52.0598 79.8943 61.1799C79.8943 70.3001 72.3761 77.6934 63.2366 77.6934C54.0972 77.6934 46.579 70.3001 46.579 61.1799C46.579 52.0598 54.0972 44.6664 63.2366 44.6664Z" fill="#FFA08B"/>
<path d="M16.6576 87.1428C25.7971 87.1428 33.3153 94.5361 33.3153 103.656C33.3153 112.776 25.7971 120.17 16.6576 120.17C7.51822 120.17 -3.99497e-07 112.776 0 103.656C3.99497e-07 94.5361 7.51823 87.1428 16.6576 87.1428Z" fill="#50B09F"/>
<path d="M63.2366 87.1428C72.3761 87.1428 79.8943 94.5361 79.8943 103.656C79.8943 112.776 72.3761 120.17 63.2366 120.17C54.0972 120.17 46.579 112.776 46.579 103.656C46.579 94.5361 54.0972 87.1428 63.2366 87.1428Z" fill="#E673A9"/>
<path d="M17.0125 1.285C26.1025 1.285 33.4714 8.63838 33.4714 17.7092C33.4714 26.7801 26.1025 34.1335 17.0125 34.1335H16.537C7.44699 34.1335 0.0780884 26.7801 0.0780888 17.7092C0.0780892 8.63838 7.44701 1.285 16.537 1.285H17.0125Z" fill="#F8DAD0"/>
</svg>
